# xmcd
#
# Track frame offsets:
#	150
#	20555
#	45485
#	87066
#	103762
#	119323
#	136029
#	152511
#	166707
#	182623
#	201037
#	216902
#	233402
#	248055
#	263888
#	281649
#	296413
#	312949
#	328467
#	343576
#
# Disc length: 4747 seconds
#
# Revision: 0
# Processed by: cddbd v1.5PL3 Copyright (c) Steve Scherf et al.
# Submitted via: audiograbber 1.82.02
#
DISCID=14128914
DTITLE=Wolfgang Petry  - Konkret 2000 Cd 2
DYEAR=2000
DGENRE=A Cappella
TTITLE0=Die Single - Live
TTITLE1=Da geht mir voll einer ab ( Extebded Version)
TTITLE2=Der  - Nei Genug - Hitmix
TTITLE3=Na dann Gute Nacht 
TTITLE4=Einfach Geil 
TTITLE5=Nichts wie weg und schluß mit der Liebe 
TTITLE6=Nur ein Kleines Stück Papier
TTITLE7=Scheissegal
TTITLE8=Sehnsucht nach dir
TTITLE9=Dieses Lied ist für euch
TTITLE10=Du bist ein Wunder
TTITLE11=Ganz oder gar nicht
TTITLE12=Bronze Silber und Gold
TTITLE13=Bis Irgendwann
TTITLE14=Es kommt sowiso ganz anders
TTITLE15=Millionär
TTITLE16=Du mit Mir
TTITLE17=Jessika
TTITLE18=Frei für dich 
TTITLE19=Denn eines Tages vieleicht
EXTD=
EXTT0=
EXTT1=
EXTT2=
EXTT3=
EXTT4=
EXTT5=
EXTT6=
EXTT7=
EXTT8=
EXTT9=
EXTT10=
EXTT11=
EXTT12=
EXTT13=
EXTT14=
EXTT15=
EXTT16=
EXTT17=
EXTT18=
EXTT19=
PLAYORDER=
